<svg width="42" height="42" viewBox="0 0 42 42" fill="none" xmlns="http://www.w3.org/2000/svg">
<circle cx="20.7735" cy="20.7735" r="20.7735" fill="#F5F5F9"/>
<path d="M20.8105 32.3705C19.0698 32.3738 17.3847 32.3014 15.7096 32.3994C13.6062 32.5225 12.0797 30.9624 12.0621 28.776C12.0489 27.138 12.1131 25.4995 12.1099 23.8613C12.1046 21.2412 12.0474 18.621 12.0651 16.0012C12.0708 15.1533 11.9103 14.3976 11.4959 13.6599C11.0266 12.8242 10.6212 11.9525 10.1961 11.0924C9.65312 9.99384 10.1563 9.158 11.3732 9.15554C16.175 9.14585 20.9769 9.14278 25.7787 9.14063C26.6644 9.14023 27.1867 9.54447 27.3018 10.4124C27.367 10.9044 27.6709 10.8547 27.9856 10.8574C29.2814 10.8688 30.3692 11.3303 31.1744 12.3629C31.6417 12.9621 31.8771 13.6541 31.8765 14.4234C31.8746 17.1444 31.8386 19.8664 31.9007 22.586C31.9223 23.5303 31.0579 24.4768 30.2149 24.5195C29.3689 24.5624 28.3977 23.6003 28.3711 22.6338C28.3359 21.3542 28.3533 20.0731 28.3506 18.7927C28.3486 17.8524 28.3643 16.9117 28.3464 15.9717C28.3318 15.2061 27.6499 14.805 26.9495 15.1221C26.7173 15.2273 26.7268 15.4334 26.7243 15.6321C26.7179 16.1522 26.7164 16.6724 26.7162 17.1926C26.7143 21.0941 26.7117 24.9955 26.7124 28.897C26.7127 30.9976 25.3563 32.37 23.2714 32.3706C22.4711 32.3708 21.6708 32.3705 20.8105 32.3705ZM27.107 13.7283C28.0408 13.6684 28.7959 13.9774 29.3051 14.7935C29.6316 15.3167 29.5953 15.9027 29.5953 16.482C29.5952 18.3834 29.5884 20.285 29.5988 22.1864C29.601 22.5756 29.6769 23.032 30.1553 23.0446C30.6751 23.0584 30.607 22.5755 30.6088 22.2294C30.622 19.7274 30.6374 17.2254 30.6261 14.7235C30.6193 13.2176 29.6853 12.2646 28.207 12.2158C27.6674 12.198 27.1263 12.2176 26.5861 12.2275C25.9169 12.2397 25.8106 12.1156 25.8989 11.4649C25.9379 11.1775 26.0301 10.8851 25.9451 10.6015C25.6718 10.4572 25.4061 10.508 25.1515 10.5073C22.8097 10.5009 20.4678 10.5017 18.1259 10.5016C16.1043 10.5016 14.0826 10.4986 12.061 10.5065C11.4318 10.5089 11.3815 10.597 11.6558 11.1644C12.0383 11.9556 12.4507 12.7329 12.8153 13.5321C13.0699 14.09 13.377 14.6269 13.3712 15.286C13.3529 17.3874 13.3702 19.4892 13.3717 21.5908C13.3735 24.0728 13.3628 26.5549 13.3782 29.0368C13.3857 30.2375 14.1137 31.0074 15.2499 31.0124C18.0521 31.0247 20.8544 31.0172 23.6566 31.0076C24.4282 31.005 25.0819 30.5058 25.322 29.7694C25.4408 29.4051 25.47 29.0293 25.4696 28.6451C25.4644 24.1816 25.4633 19.7181 25.4673 15.2545C25.4687 13.7338 25.4767 13.7338 27.107 13.7283Z" fill="black"/>
<path d="M19.4402 21.0339C19.2445 21.334 18.9779 21.4093 18.6904 21.4142C17.8531 21.4283 17.0163 21.4543 16.1796 21.3603C15.7481 21.3118 15.512 21.1097 15.5117 20.6788C15.5114 20.2078 15.8227 20.0826 16.2308 20.0739C17.0878 20.0558 17.9446 20.0233 18.8017 20.0099C19.3348 20.0016 19.5891 20.392 19.4402 21.0339Z" fill="#D40C1A"/>
<path d="M16.0742 16.6079C17.0043 16.5909 17.8812 16.5855 18.7578 16.5648C19.1908 16.5546 19.474 16.7543 19.4901 17.1727C19.5066 17.6021 19.2857 17.8808 18.7939 17.872C17.9569 17.8571 17.1196 17.8615 16.2825 17.8625C15.9492 17.8629 15.6209 17.8537 15.5428 17.4344C15.4678 17.0319 15.578 16.7217 16.0742 16.6079Z" fill="#D40C1A"/>
<path d="M19.3644 25.9984C19.584 26.6855 19.411 26.9695 18.7778 26.982C17.883 26.9996 16.9877 26.9888 16.0926 26.9892C15.7642 26.9894 15.5566 26.8261 15.5233 26.5014C15.4901 26.1771 15.5976 25.8488 15.9441 25.8098C16.9903 25.6922 18.0434 25.7061 19.0932 25.7923C19.1774 25.7992 19.2539 25.9012 19.3644 25.9984Z" fill="#D40C1A"/>
<path d="M15.7198 23.8916C15.386 23.1751 15.5622 22.8584 16.2688 22.8413C16.786 22.8287 17.304 22.8412 17.8216 22.8488C18.1569 22.8537 18.4086 22.9755 18.4351 23.3549C18.4601 23.7133 18.2623 23.9518 17.9368 23.9926C17.2105 24.0835 16.4756 24.1764 15.7198 23.8916Z" fill="#D40C1A"/>
</svg>
