<svg width="42" height="42" viewBox="0 0 42 42" fill="none" xmlns="http://www.w3.org/2000/svg">
<circle cx="20.7405" cy="20.7405" r="20.7405" fill="#F5F5F9"/>
<path d="M18.3641 12.897C18.3546 11.6856 18.3255 10.5411 18.3455 9.39744C18.3526 8.99633 18.2023 8.90226 17.8429 8.88496C16.705 8.83019 16.6782 8.85534 16.6783 9.99162C16.6789 16.9925 16.6753 23.9933 16.6698 30.9941C16.6691 31.8096 16.767 31.9242 17.5646 31.9311C17.8502 31.9335 18.132 31.965 18.1682 32.3167C18.2029 32.6532 18.0091 32.8851 17.6895 32.9493C17.4536 32.9967 17.158 33.0483 16.9646 32.9495C16.3831 32.6522 15.8935 32.8058 15.3159 33.0095C14.0147 33.4684 12.4574 32.1213 12.4541 30.5967C12.4467 27.2084 12.4488 23.82 12.4475 20.4317C12.446 16.8414 12.4464 13.2512 12.4428 9.66095C12.4416 8.48995 13.366 7.43627 14.5367 7.50924C15.8942 7.59387 17.2465 7.37377 18.6068 7.56955C19.2783 7.6662 19.9911 7.43357 20.6771 7.47756C22.6644 7.60502 24.6479 7.45584 26.633 7.4681C28.1438 7.47742 29.0357 8.37872 29.0352 9.89835C29.0326 16.675 29.0352 23.4517 29.0343 30.2284C29.0341 31.6377 28.4447 32.5786 27.3127 32.9852C26.806 33.1672 26.3032 33.2068 25.8342 32.8813C25.5618 32.6921 25.3065 32.6795 25.0294 32.873C24.4173 33.3004 23.841 33.1735 23.3137 32.7152C22.8168 32.2833 22.4064 32.257 21.8575 32.7224C20.833 33.5911 19.0805 33.1762 18.4293 31.991C18.3262 31.8035 18.3283 31.6059 18.329 31.4032C18.3394 28.3534 18.351 25.3037 18.3566 22.254C18.3623 19.1574 18.3617 16.0609 18.3641 12.897ZM21.8755 23.6006C21.877 19.0508 21.8801 14.501 21.8785 9.95114C21.8782 8.97688 21.7875 8.89553 20.7994 8.89644C20.6651 8.89656 20.5288 8.91816 20.3971 8.90143C19.7635 8.82099 19.6366 9.12759 19.595 9.71833C19.3851 12.6965 19.5941 15.675 19.5376 18.6536C19.4586 22.8177 19.5446 26.9848 19.5548 31.1506C19.5552 31.3444 19.5846 31.5216 19.7465 31.6245C20.2542 31.9469 20.8245 31.9384 21.3625 31.7854C21.8628 31.6431 21.869 31.1719 21.8686 30.7282C21.8663 28.3972 21.8726 26.0662 21.8755 23.6006ZM24.8207 20.7733C24.8207 16.8798 24.8207 12.9864 24.8207 9.06063C24.6993 9.0339 24.5729 8.99877 24.4441 8.97879C23.1521 8.77838 23.1241 8.80255 23.1244 10.1062C23.1258 16.719 23.1276 23.3319 23.1287 29.9447C23.1288 30.3706 23.1189 30.7965 23.1237 31.2223C23.129 31.6897 23.416 31.923 23.8395 31.9506C24.3583 31.9844 24.8871 31.5485 24.8719 31.1279C24.7487 27.7217 24.8549 24.3144 24.8207 20.7733ZM26.0701 17.0035C26.0635 20.8172 26.0624 24.631 26.0463 28.4448C26.0426 29.3186 25.9976 30.1928 25.952 31.0658C25.9255 31.5728 26.1617 31.7445 26.6378 31.7239C27.2876 31.6957 27.7506 31.1845 27.759 30.3901C27.7754 28.8199 27.77 27.2494 27.7708 25.679C27.7735 20.4519 27.7766 15.2247 27.7753 9.99759C27.7751 9.08089 26.9868 8.57649 26.169 8.95247C25.9937 9.03309 25.9693 9.16577 25.9829 9.33777C26.1817 11.8461 26.0192 14.3587 26.0701 17.0035ZM15.4181 18.3498C15.4181 15.2418 15.4181 12.1337 15.4181 9.02724C14.0676 8.70548 13.7141 8.96488 13.7187 10.3001C13.7314 13.9507 13.7731 17.6014 13.7587 21.2519C13.7532 22.6409 13.7685 24.0284 13.7848 25.4168C13.8035 27.0047 13.7527 28.5932 13.7445 30.1815C13.7426 30.5639 13.8126 30.9403 14.0253 31.2737C14.3083 31.7175 14.7338 31.814 15.1995 31.6946C15.6525 31.5785 15.5416 31.1691 15.5346 30.8512C15.5077 29.6422 15.4351 28.4338 15.4278 27.2249C15.4101 24.3115 15.4196 21.398 15.4181 18.3498Z" fill="black"/>
<line x1="15.9637" y1="30.6992" x2="15.9637" y2="9.12914" stroke="#D40C1A" stroke-width="1.24445"/>
<line x1="25.7114" y1="30.6992" x2="25.7114" y2="9.12914" stroke="#D40C1A" stroke-width="1.65926"/>
</svg>
