<svg width="42" height="42" viewBox="0 0 42 42" fill="none" xmlns="http://www.w3.org/2000/svg">
<circle cx="20.7405" cy="20.7405" r="20.7405" fill="#F5F5F9"/>
<path d="M20.0481 7.52124C20.6366 7.34874 21.0817 7.64093 21.5299 7.82764C24.5409 9.08183 27.5739 10.2773 30.6525 11.3569C31.5161 11.6597 31.8201 12.1241 31.8218 13.0521C31.8256 15.1385 31.8874 17.2268 31.8186 19.3109C31.6061 25.7513 28.7222 30.607 23.0301 33.6953C20.1514 35.2572 20.7218 35.1855 17.9512 33.7456C14.8847 32.152 12.4609 29.825 10.857 26.7238C9.78892 24.6589 9.31069 22.4396 9.16884 20.1244C9.04512 18.105 9.23004 16.0908 9.16953 14.0746C9.16001 13.7574 9.16452 13.439 9.13663 13.1234C9.05488 12.1987 9.33386 11.7237 10.2001 11.3905C12.3971 10.5454 14.6004 9.71623 16.7937 8.8614C17.8691 8.44224 18.9278 7.98025 20.0481 7.52124ZM28.4226 12.0624C25.9539 11.1033 23.4826 10.1508 21.0191 9.1785C20.6107 9.01728 20.2565 9.0176 19.8459 9.18191C16.9491 10.3411 14.0694 11.5459 11.1219 12.5728C10.6337 12.7429 10.595 13.0546 10.5963 13.4607C10.6031 15.6366 10.5919 17.8126 10.6154 19.9883C10.6222 20.62 10.6753 21.2592 10.7873 21.8806C11.7598 27.2767 14.8649 30.9436 19.8881 33.0484C20.2653 33.2065 20.6091 33.2509 20.9966 33.0803C27.6399 30.1553 30.5862 24.9552 30.3701 18.4236C30.3175 16.8368 30.2621 15.251 30.3988 13.6696C30.4527 13.046 30.3098 12.6841 29.6609 12.5392C29.2682 12.4515 28.9013 12.2486 28.4226 12.0624Z" fill="black"/>
<path d="M24.6299 23.1769C22.8092 25.7257 20.2795 26.6179 17.4032 25.7276C16.9949 25.6013 16.7088 25.657 16.4363 25.9642C16.2111 26.2182 15.9706 26.4589 15.7321 26.7009C15.4918 26.9446 15.2278 27.1185 14.907 26.8369C14.5663 26.5378 14.6021 26.2084 14.8693 25.8797C15.1693 25.5107 15.4723 25.1442 15.7747 24.7771C15.9606 24.5513 16.0157 24.329 15.8988 24.029C14.4436 20.2929 17.0724 16.1919 20.929 15.3979C22.1713 15.1421 23.4228 14.9915 24.6755 14.8263C24.8742 14.8001 25.0678 14.727 25.2607 14.666C25.9172 14.4582 26.4624 14.8202 26.3623 15.4874C26.1276 17.0525 26.2788 18.6513 25.8653 20.2038C25.5886 21.2428 25.255 22.2385 24.6299 23.1769ZM16.8396 22.0031C16.8828 22.3659 16.733 22.7673 17.0859 23.1562C17.4717 22.7527 17.7867 22.3821 17.784 21.8078C17.7806 21.0831 17.7571 20.3543 17.9087 19.6388C18.0002 19.2068 18.2288 18.8013 18.7067 18.8762C19.2076 18.9548 19.1322 19.4162 19.0908 19.814C19.0572 20.1363 18.9428 20.4844 19.2128 20.7819C19.2906 20.7654 19.3692 20.7706 19.4178 20.735C19.8212 20.439 20.0463 20.1123 19.9719 19.536C19.8763 18.795 19.9486 18.0324 19.9486 17.2774C18.3861 17.6942 16.9255 19.8609 16.8396 22.0031ZM18.8743 24.655C20.2454 24.7058 21.5518 24.5699 22.6487 23.4043C21.5766 23.1178 20.6262 23.2123 19.685 23.203C18.8394 23.1947 18.3752 23.559 18.0645 24.4226C18.2564 24.6142 18.5121 24.6135 18.8743 24.655ZM20.6407 21.8079C21.3802 21.8599 22.1309 21.8495 22.8565 21.9794C23.7913 22.1468 24.4331 21.4655 24.1693 20.4427C23.6527 20.6404 23.1082 20.6593 22.5732 20.5961C21.6216 20.4838 21.0181 20.9174 20.6407 21.8079ZM23.553 16.3619C23.3053 16.3866 23.0558 16.3989 22.8104 16.4377C21.0368 16.718 21.0098 16.7591 21.3792 18.5296C21.387 18.5671 21.4312 18.597 21.5292 18.7174C22.3067 18.0076 23.0946 17.3158 23.8444 16.585C24.0375 16.3968 23.8275 16.3323 23.553 16.3619ZM24.8492 17.9113C24.8304 17.7655 24.9677 17.6048 24.9874 17.6561C24.2405 18.3311 23.4936 19.006 22.7443 19.6831C23.1508 19.8095 23.6149 19.6499 24.0032 19.8614C24.4492 20.1044 24.6 19.8303 24.6634 19.4951C24.7558 19.007 24.7868 18.5074 24.8492 17.9113Z" fill="#D40C1A"/>
</svg>
