<svg width="42" height="42" viewBox="0 0 42 42" fill="none" xmlns="http://www.w3.org/2000/svg">
<circle cx="20.7405" cy="20.7405" r="20.7405" fill="#F5F5F9"/>
<path d="M20.6277 12.3396C20.4422 11.6361 20.1732 11.0107 20.1474 10.3246C20.1407 10.1438 20.0824 9.95605 20.0089 9.78857C19.8412 9.40638 19.597 9.08666 19.1215 9.13281C18.6179 9.18169 18.3792 9.54682 18.3439 9.99191C18.243 11.2668 17.739 12.4304 17.3963 13.6382C17.0806 14.751 16.5045 15.739 15.9043 16.7163C15.6283 17.1657 15.1413 17.316 14.7447 17.5936C13.087 18.7539 11.2144 19.3812 9.25059 19.7606C8.75191 19.8569 8.30197 19.9761 8.29501 20.5724C8.28743 21.2215 8.77945 21.4514 9.31057 21.5301C10.8292 21.7549 12.2243 22.3127 13.612 22.9458C15.3376 23.733 16.3883 25.0638 17.0734 26.7757C17.675 28.2791 18.0836 29.8293 18.3452 31.4219C18.429 31.9316 18.6427 32.3557 19.2037 32.3574C19.741 32.3591 19.9401 31.9154 20.0271 31.4574C20.3011 30.0153 20.7551 28.6306 21.2029 27.2332C22.0697 24.5281 23.9498 22.9878 26.5325 22.1344C27.3517 21.8637 28.1747 21.6086 29.0428 21.5232C29.5676 21.4716 30.0351 21.2327 30.0749 20.6542C30.1163 20.0519 29.6609 19.8342 29.1342 19.726C27.9224 19.4769 26.7489 19.1059 25.5823 18.687C23.4571 17.924 22.0382 16.5067 21.3135 14.3798C21.0881 13.7184 20.8703 13.0545 20.6277 12.3396ZM20.7174 16.6438C21.8662 18.7425 23.8505 19.7384 26.1957 20.6313C22.1492 21.7559 20.2016 24.5681 19.1766 28.2418C18.2309 24.4352 16.1515 21.753 12.2755 20.5965C16.0272 19.457 18.2109 16.939 19.1963 13.2541C19.6124 14.438 20.0652 15.5294 20.7174 16.6438Z" fill="black"/>
<path d="M25.8037 28.8763C27.1163 29.3273 27.3355 30.4705 27.6438 31.5444C27.7226 31.8189 27.7342 32.1408 28.1102 32.1265C28.453 32.1134 28.55 31.8314 28.5977 31.5372C28.6164 31.4223 28.6466 31.3093 28.6698 31.195C28.9586 29.7714 29.7472 28.8454 31.2352 28.6114C31.5436 28.563 31.8777 28.4948 31.8881 28.1079C31.8994 27.6874 31.5362 27.6764 31.2375 27.6355C29.6092 27.4129 28.9604 26.2697 28.6183 24.845C28.5459 24.5435 28.5139 24.2 28.1221 24.1886C27.7186 24.1768 27.6881 24.5478 27.6 24.8293C27.5305 25.0515 27.4707 25.2786 27.429 25.5075C27.2023 26.7527 26.3963 27.3893 25.2116 27.626C24.878 27.6926 24.4344 27.6361 24.4336 28.131C24.4329 28.554 24.8593 28.5653 25.1501 28.6793C25.3447 28.7555 25.552 28.7992 25.8037 28.8763Z" fill="#D40C1A"/>
<path d="M27.818 12.8366C27.4873 12.3905 27.4365 11.8828 27.2274 11.4399C27.1323 11.2383 27.0422 11.0436 26.789 11.0575C26.5086 11.073 26.3979 11.2864 26.3433 11.5275C26.2465 11.9547 26.2773 12.4132 25.9634 12.7824C25.5809 13.2325 25.0724 13.4503 24.5317 13.6153C24.3247 13.6784 24.0984 13.7233 24.0812 13.9816C24.0621 14.2704 24.2848 14.4015 24.5203 14.4457C25.5742 14.6432 26.2365 15.2266 26.4465 16.3006C26.4863 16.5045 26.5882 16.7142 26.8439 16.7331C27.112 16.7529 27.217 16.5347 27.2733 16.3411C27.5726 15.3119 28.1456 14.6028 29.2844 14.471C29.4976 14.4463 29.6589 14.2534 29.6549 14.0165C29.6507 13.7642 29.4539 13.667 29.2362 13.6161C28.7083 13.4925 28.1848 13.3622 27.818 12.8366Z" fill="#D40C1A"/>
</svg>
