<svg width="42" height="42" viewBox="0 0 42 42" fill="none" xmlns="http://www.w3.org/2000/svg">
<circle cx="20.7755" cy="20.7735" r="20.7735" fill="#F5F5F9"/>
<path d="M26.3422 30.1752C24.1719 32.1555 21.6402 32.813 18.8651 32.1807C16.0963 31.5498 14.165 29.7848 13.0737 27.1636C11.9542 24.4746 12.4272 21.8406 13.4771 19.2502C15.0228 15.4361 17.2063 12.0167 19.8907 8.90828C20.5704 8.12117 20.9139 8.11664 21.5851 8.90957C24.4257 12.265 26.7151 15.9595 28.3195 20.0567C29.3131 22.5943 29.4027 25.1477 28.2234 27.6781C27.7773 28.6352 27.124 29.4232 26.3422 30.1752ZM14.4775 27.0435C16.0685 30.544 19.8504 31.689 23.1136 30.5792C25.9967 29.5988 27.7741 26.5233 27.7604 24.0029C27.7512 22.3345 27.2456 20.8136 26.6167 19.3271C25.4352 16.5345 23.8203 13.9833 22.0534 11.5287C21.668 10.9933 21.2907 10.4393 20.7183 9.96504C20.4752 10.2463 20.2438 10.4947 20.0341 10.7602C19.3052 11.6833 18.6262 12.6417 17.9792 13.6248C16.5146 15.8503 15.2212 18.164 14.3592 20.6937C13.6469 22.7843 13.4599 24.8843 14.4775 27.0435Z" fill="black"/>
<path d="M23.9037 25.1526C24.1808 24.4678 24.3979 23.8178 24.2418 23.1082C24.1407 22.6489 24.3197 22.3214 24.719 22.0954C25.1668 21.8418 25.4389 21.9375 25.6107 22.4188C26.3498 24.4892 25.1855 27.5413 22.7471 28.2109C22.251 28.3472 21.9073 28.2409 21.6884 27.791C21.4691 27.3401 21.6227 26.932 22.1526 26.7197C22.9206 26.4121 23.5211 25.9466 23.9037 25.1526Z" fill="#D40C1A"/>
</svg>
