<svg width="37" height="37" viewBox="0 0 37 37" fill="none" xmlns="http://www.w3.org/2000/svg">
<path d="M17.3368 9.62012C17.334 10.25 17.1012 10.7204 16.4967 11.0061C16.2346 11.13 16.0447 11.3983 15.8019 11.573C14.8036 12.2912 14.2941 13.2067 14.4136 14.4845C14.4969 15.3753 14.4297 16.2801 14.4297 17.1787C14.4297 19.6806 14.4297 22.1825 14.4297 24.6844C14.4297 26.0058 14.4483 27.3276 14.4215 28.6485C14.409 29.2621 14.6888 29.7163 15.1801 29.9481C15.6351 30.1627 16.1779 30.2225 16.6502 29.865C17.106 29.52 17.5946 29.6123 18.0159 29.8772C18.4401 30.1439 18.7685 30.1391 19.1953 29.8782C19.6417 29.6053 20.1138 29.5539 20.6239 29.9028C21.2721 30.3461 22.6841 30.1198 22.7606 28.8589C22.8275 27.7551 22.8375 26.6393 22.7344 25.5295C22.7103 25.2691 22.7782 25.0016 22.7788 24.7373C22.783 22.6935 22.7811 20.6496 22.7811 18.6058C22.7811 17.0201 22.7651 15.4342 22.7895 13.8488C22.7985 13.2699 22.6195 12.7856 22.2488 12.3721C21.7535 11.8195 21.1945 11.3364 20.5624 10.9395C20.0796 10.6364 19.8088 10.2187 19.9268 9.62012" stroke="white" stroke-linecap="round" stroke-linejoin="round"/>
<path d="M22.6251 17.9185C19.947 17.9185 17.2689 17.9185 14.5908 17.9185" stroke="white" stroke-linecap="round" stroke-linejoin="round"/>
<path d="M22.6251 25.4243C19.947 25.4243 17.2689 25.4243 14.5908 25.4243" stroke="white" stroke-linecap="round" stroke-linejoin="round"/>
<path d="M19.9278 9.56704C20.221 9.48135 20.3359 9.25417 20.2898 8.98701C20.2195 8.58008 20.2511 8.1751 20.2494 7.76988C20.2482 7.4639 20.1746 7.28504 19.8234 7.23294C19.009 7.11213 18.2038 7.11213 17.3894 7.23293C17.0382 7.28504 16.9646 7.4639 16.9633 7.76988C16.9617 8.1751 16.9861 8.57944 16.9239 8.98699C16.8692 9.34573 17.1446 9.55143 17.4968 9.5184C18.2901 9.44397 19.0862 9.36695 19.875 9.56704" stroke="white" stroke-linecap="round" stroke-linejoin="round"/>
</svg>
