<svg width="37" height="37" viewBox="0 0 37 37" fill="none" xmlns="http://www.w3.org/2000/svg">
<path d="M19.2036 32.6402C18.1013 32.6394 17.1052 32.6525 16.1097 32.6341C14.7966 32.6098 14.0207 31.8969 14.0123 30.6055C13.9877 26.8003 14.0091 22.9947 14.0007 19.1894C13.9993 18.5434 14.2548 18.028 14.6529 17.5463C15.1921 16.8936 15.2442 16.1832 14.7685 15.4806C14.0411 14.4063 14.2108 13.1571 14.075 11.9752C14.0122 11.4288 14.3808 10.9678 14.8054 10.6111C15.2953 10.1994 15.7765 9.7741 16.2934 9.39855C16.8709 8.97892 17.1068 8.55452 16.881 7.777C16.5034 6.47688 16.9329 6.00933 18.2787 6.00048C18.4565 5.99931 18.6343 6.00059 18.8122 6.00096C20.7924 6.00513 20.92 6.14648 20.5841 8.07438C20.5094 8.50303 20.5727 8.84181 20.9372 9.1075C21.1667 9.27484 21.3658 9.48617 21.6026 9.64078C24.0103 11.2123 23.8535 12.6177 22.7183 15.5648C22.4345 16.3018 22.3659 16.9284 22.8938 17.5414C23.4112 18.1422 23.5609 18.8313 23.5556 19.615C23.5316 23.1358 23.5507 26.6568 23.5424 30.1777C23.5381 31.9986 22.915 32.6218 21.1238 32.6372C20.5192 32.6424 19.9146 32.6394 19.2036 32.6402ZM14.7715 12.4351C14.7767 13.5081 14.9285 14.5119 15.4807 15.4955C15.8512 16.1557 15.8636 17.0498 15.3145 17.7088C14.6687 18.4839 14.5956 19.3524 14.5672 20.2959C14.541 21.1668 14.8248 21.4985 15.72 21.4844C17.8488 21.4509 19.9789 21.4941 22.1083 21.5189C22.4876 21.5233 22.9095 21.5199 22.9245 21.0629C22.9576 20.0517 23.2127 18.9826 22.4952 18.0839C21.6862 17.0706 21.6803 16.0666 22.3355 14.9576C23.2636 13.3867 22.8643 11.4982 21.4598 10.3577C20.834 9.84949 20.1254 9.43985 19.7646 8.63593C19.5542 8.16705 18.1124 8.10536 17.8878 8.56903C17.356 9.66694 16.2726 10.1346 15.4503 10.8942C15.0372 11.2758 14.7104 11.6566 14.7715 12.4351ZM15.3521 22.2596C15.0332 22.27 14.6195 22.4224 14.616 22.7414C14.595 24.6243 14.6004 26.5074 14.5853 28.3903C14.5807 28.9693 14.914 29.1129 15.4051 29.1124C17.6435 29.1102 19.882 29.1005 22.1202 29.1186C22.7779 29.1239 22.9815 28.8287 22.973 28.208C22.9494 26.5029 22.9468 24.7969 22.9745 23.0919C22.9857 22.4024 22.7133 22.1395 22.0311 22.1492C19.8493 22.1804 17.6671 22.1845 15.3521 22.2596ZM15.7528 29.8033C14.5974 29.8815 14.2814 30.3998 14.822 31.3205C15.1462 31.8726 15.6489 32.0549 16.2561 32.053C17.425 32.0494 18.5939 32.0553 19.7628 32.0543C20.4003 32.0538 21.0441 32.1024 21.6737 32.0299C22.5554 31.9284 22.9583 31.3188 22.9556 30.4785C22.9526 29.5375 22.1815 29.8219 21.6888 29.8132C19.7767 29.7797 17.8637 29.8018 15.7528 29.8033ZM19.4957 7.69288C19.5535 7.69135 19.6117 7.68627 19.667 7.66907C19.9443 7.5827 20.0539 7.37567 20.0017 7.07563C19.9438 6.7427 19.697 6.60669 19.3898 6.60146C18.8965 6.59307 18.402 6.59946 17.9093 6.62449C17.5869 6.64086 17.3793 6.81196 17.3937 7.16513C17.4074 7.5022 17.5964 7.68991 17.9267 7.70064C18.3985 7.71598 18.871 7.70949 19.4957 7.69288Z" fill="#5D3F3C"/>
<path d="M17.9507 24.7104C18.2364 24.3186 18.2638 23.7371 18.7814 23.7339C19.2968 23.7307 19.3568 24.3007 19.5857 24.6355C19.8045 24.9555 19.9735 25.3147 20.128 25.6724C20.4276 26.3658 20.1921 26.9431 19.6243 27.3612C19.1006 27.7467 18.5034 27.8551 17.9472 27.4084C17.3643 26.9402 17.1274 26.3367 17.4378 25.6115C17.5628 25.3195 17.7519 25.055 17.9507 24.7104ZM18.1895 25.5055C17.9067 26.0612 17.8241 26.584 18.4596 26.9651C18.8455 27.1965 19.1703 27.0227 19.3645 26.7049C19.6888 26.1743 19.5606 25.769 19.3227 25.3928C19.0595 24.9765 18.5263 24.9001 18.2906 25.3325C18.2601 25.3884 18.2271 25.4462 18.1895 25.5055Z" fill="#5D3F3C"/>
</svg>
