<svg width="37" height="37" viewBox="0 0 37 37" fill="none" xmlns="http://www.w3.org/2000/svg">
<path d="M25.8785 14.3698C25.6683 14.4027 25.5164 14.5577 25.3369 14.6544C24.8124 14.9371 24.2479 15.0933 23.6788 15.2335C23.1618 15.3609 22.6378 15.4568 22.1118 15.5283C21.7071 15.5833 21.2996 15.6237 20.8929 15.6657C20.2608 15.7308 19.6272 15.7539 18.994 15.781C18.4877 15.8027 17.9799 15.7837 17.4727 15.7859C16.8694 15.7885 16.266 15.7674 15.6654 15.7181C14.7262 15.641 13.7887 15.5411 12.8628 15.3466C12.2544 15.2189 11.6486 15.0854 11.0703 14.8421C10.8507 14.7497 10.6321 14.6564 10.4375 14.5118C10.3843 14.4722 10.3312 14.4183 10.2713 14.4054C10.1518 14.3797 10.0757 14.3243 10.0451 14.197C10.001 14.0141 9.9749 13.8318 10.0773 13.6626C10.2496 13.3782 10.5219 13.2198 10.8008 13.0831C11.1478 12.9129 11.5131 12.7855 11.8848 12.6902C12.4117 12.5552 12.9413 12.4291 13.4807 12.3557C13.918 12.2961 14.3537 12.2236 14.7916 12.1701C15.0713 12.1359 15.3536 12.1226 15.635 12.1053C16.1822 12.0717 16.7293 12.0228 17.277 12.0158C17.7987 12.009 18.3224 11.9725 18.8437 12.0409C18.8931 12.0474 18.944 12.042 18.9942 12.0417C19.5533 12.0391 20.1095 12.0876 20.6666 12.1326C21.2362 12.1786 21.8044 12.2358 22.3681 12.3276C23.2647 12.4736 24.1569 12.6445 25.0047 13.0014C25.2766 13.1158 25.5369 13.2492 25.7589 13.4564C25.9963 13.6779 26.0478 13.9417 25.9362 14.2429C25.9084 14.3179 25.894 14.3786 25.9381 14.4488C25.9887 14.5293 25.9996 14.6207 25.9995 14.7158C25.9989 17.479 25.9983 20.2422 26 23.0054C26.0002 23.2829 25.8706 23.4764 25.668 23.6351C25.2485 23.9638 24.7588 24.1275 24.2659 24.2768C23.7423 24.4354 23.2075 24.5498 22.6693 24.6379C22.12 24.7278 21.5681 24.7999 21.0131 24.8497C20.3058 24.9132 19.5984 24.9518 18.8891 24.9806C18.4064 25.0002 17.9245 25.0017 17.4426 24.999C16.9304 24.9961 16.4172 24.9755 15.9063 24.9366C15.2118 24.8836 14.5169 24.8233 13.8275 24.7178C12.8702 24.5714 11.9187 24.3903 11.0115 24.0244C10.714 23.9043 10.4266 23.7534 10.1962 23.5093C10.0589 23.3639 9.9999 23.1925 10 22.9896C10.0014 20.2369 10.0012 17.4842 10.0002 14.7315C10.0002 14.5979 10.0245 14.4755 10.1064 14.3698" stroke="#5D3F3C" stroke-width="0.669388" stroke-linecap="round" stroke-linejoin="round"/>
<path d="M19 17C19 19 19 21 19 23" stroke="#5D3F3C" stroke-width="0.627551" stroke-linecap="round" stroke-linejoin="round"/>
<path d="M17 17C17 19 17 21 17 23" stroke="#5D3F3C" stroke-width="0.627551" stroke-linecap="round" stroke-linejoin="round"/>
<path d="M25 17C25 19 25 21 25 23" stroke="#5D3F3C" stroke-width="0.627551" stroke-linecap="round" stroke-linejoin="round"/>
<path d="M12 17C12 19 12 21 12 23" stroke="#5D3F3C" stroke-width="0.627551" stroke-linecap="round" stroke-linejoin="round"/>
<path d="M22 17C22 19 22 21 22 23" stroke="#5D3F3C" stroke-width="0.669388" stroke-linecap="round" stroke-linejoin="round"/>
<path d="M14 17C14 19 14 21 14 23" stroke="#5D3F3C" stroke-width="0.669388" stroke-linecap="round" stroke-linejoin="round"/>
</svg>
